<?xml version="1.0" encoding="UTF-8"?>
<svg version="1.1" xmlns="http://www.w3.org/2000/svg" width="1024" height="1024">
<path d="M0 0 C337.92 0 675.84 0 1024 0 C1024 337.92 1024 675.84 1024 1024 C686.08 1024 348.16 1024 0 1024 C0 686.08 0 348.16 0 0 Z " fill="#F9F6F0" transform="translate(0,0)"/>
<path d="M0 0 C3.77990866 1.33100794 7.40629123 2.98899854 11.0625 4.625 C54.86072388 23.48603674 99.52556018 23.92260265 144 7 C145.55631172 6.3525193 147.10840791 5.6948183 148.65625 5.02734375 C149.41655518 4.70040527 150.17686035 4.3734668 150.96020508 4.03662109 C152.39994776 3.4069408 153.832792 2.76113531 155.2565918 2.09619141 C159.90633258 0.03845826 163.10815147 -0.50563482 168 1 C171.01364016 3.79420579 172.24045563 5.96223006 172.50120544 9.99301147 C172.52184812 11.58684143 172.52053008 13.18104983 172.50170898 14.77490234 C172.50981346 16.08584869 172.50981346 16.08584869 172.51808167 17.42327881 C172.5305801 20.31117721 172.51405692 23.19807984 172.49609375 26.0859375 C172.49624885 28.10552014 172.49773967 30.12510308 172.50050354 32.14468384 C172.50188851 36.38321049 172.48932384 40.62139922 172.46655273 44.85986328 C172.43834978 50.25380447 172.44085455 55.64717661 172.45364285 61.04115868 C172.46065507 65.21775026 172.45274504 69.39421408 172.44038582 73.57078934 C172.43591202 75.55680473 172.43549832 77.54283406 172.43945122 79.52885056 C172.46810157 106.62043188 165.78210813 129.11723016 148 150 C147.00806641 151.27230469 147.00806641 151.27230469 145.99609375 152.5703125 C144.20981402 154.74460994 142.45494396 156.5024268 140.3125 158.3125 C138.1843903 160.12158777 136.07822801 161.9264563 134.04296875 163.83984375 C123.14503105 174.02931131 110.14066838 182.04317556 97 189 C96.3611084 189.34111816 95.7222168 189.68223633 95.06396484 190.03369141 C93.09675984 191.070155 91.11539824 192.07140967 89.125 193.0625 C87.95195312 193.65160156 86.77890625 194.24070312 85.5703125 194.84765625 C79.23836708 196.89133666 74.82261807 195.55996004 69.046875 192.77734375 C67.27326028 191.84578504 65.50782608 190.8985194 63.75 189.9375 C62.82195557 189.43943848 61.89391113 188.94137695 60.93774414 188.42822266 C53.99909757 184.65717953 47.3945365 180.64464878 41 176 C40.02160156 175.30519531 39.04320312 174.61039063 38.03515625 173.89453125 C13.34692173 155.94234012 -5.81920514 133.06446793 -11.62442017 102.48490906 C-12.84822856 94.38795528 -12.56925071 86.11959322 -12.53125 77.953125 C-12.5339518 75.88189513 -12.53783991 73.8106665 -12.54284668 71.73944092 C-12.54869356 67.43652049 -12.54032514 63.13393567 -12.52148438 58.83105469 C-12.49852422 53.31979811 -12.51195543 47.8093136 -12.53577423 42.29808426 C-12.55021608 38.03784334 -12.54563657 33.77778637 -12.53526306 29.51753998 C-12.53260023 27.48417823 -12.53584987 25.45079966 -12.54518127 23.41745758 C-12.55533918 20.58677094 -12.53986424 17.75735005 -12.51757812 14.92675781 C-12.52567505 14.09247253 -12.53377197 13.25818726 -12.54211426 12.39862061 C-12.48383062 8.40306888 -12.29173747 6.4581632 -10.09265137 3.00457764 C-6.69633557 -0.24879691 -4.66234849 -0.45959624 0 0 Z " fill="#194F55" transform="translate(169,427)"/>
<path d="M0 0 C1.24716797 -0.02900391 2.49433594 -0.05800781 3.77929688 -0.08789062 C12.54674814 -0.14778388 19.8765181 0.6856262 26.96484375 6.171875 C27.47144531 6.79578125 27.97804688 7.4196875 28.5 8.0625 C29.02464844 8.67609375 29.54929687 9.2896875 30.08984375 9.921875 C35.02093854 17.92672915 35.08131747 25.3513498 35.0625 34.5625 C35.09085938 35.80902344 35.11921875 37.05554688 35.1484375 38.33984375 C35.16886828 48.11597332 33.40214198 56.5867868 27.125 64.3125 C17.58794998 71.75605123 9.92543405 72.63465961 -1.875 72.5 C-2.97521484 72.49935547 -4.07542969 72.49871094 -5.20898438 72.49804688 C-13.29691382 72.45308618 -13.29691382 72.45308618 -14.4375 71.3125 C-14.53706278 69.1398732 -14.56549719 66.96396894 -14.56689453 64.7890625 C-14.56864685 64.10777283 -14.57039917 63.42648315 -14.57220459 62.72454834 C-14.57662242 60.46217333 -14.57368538 58.19987587 -14.5703125 55.9375 C-14.57098556 54.3719074 -14.5719556 52.8063149 -14.57321167 51.24072266 C-14.57468855 47.95539355 -14.57253441 44.67009158 -14.56787109 41.38476562 C-14.5621738 37.16429484 -14.56545286 32.94388764 -14.57144356 28.72341919 C-14.57504944 25.48933428 -14.57391046 22.25526455 -14.57131577 19.0211792 C-14.57064657 17.46457919 -14.57147466 15.90797782 -14.57379532 14.35137939 C-14.5763223 12.17952804 -14.57248065 10.00778104 -14.56689453 7.8359375 C-14.56609894 6.59763184 -14.56530334 5.35932617 -14.56448364 4.08349609 C-14.26465019 -2.45937273 -5.05645753 0.03813316 0 0 Z " fill="#1A4D52" transform="translate(742.4375,474.6875)"/>
<path d="M0 0 C4.62 0 9.24 0 14 0 C16.36195559 9.89467881 18.34590461 19.81090734 20.1875 29.8125 C20.46263263 31.29496978 20.73802186 32.77739196 21.01367188 34.25976562 C21.67872864 37.83930205 22.34035149 41.41946246 23 45 C24.76951747 40.02716632 25.99825847 35.02064546 27.1640625 29.8828125 C27.45946426 28.5970784 27.45946426 28.5970784 27.76083374 27.28536987 C28.38498461 24.56587086 29.00505096 21.84545962 29.625 19.125 C30.04920915 17.27337562 30.47368548 15.42181243 30.8984375 13.5703125 C31.9353855 9.04757739 32.96867303 4.52402005 34 0 C37.96 0 41.92 0 46 0 C47.66121527 4.698312 48.86178154 9.39607817 49.9453125 14.25 C50.12005096 15.02633789 50.29478943 15.80267578 50.474823 16.60253906 C50.84116358 18.23595544 51.20580997 19.86975261 51.56884766 21.50390625 C52.12361801 23.99379742 52.68852085 26.48125071 53.25390625 28.96875 C53.60999773 30.56236098 53.96548681 32.15610671 54.3203125 33.75 C54.48902863 34.48766602 54.65774475 35.22533203 54.83157349 35.98535156 C55.72584451 40.06326961 56.17635123 43.82662766 56 48 C56.66 48 57.32 48 58 48 C58.03738281 47.33170166 58.07476563 46.66340332 58.11328125 45.97485352 C58.68867087 37.57458815 60.03684787 29.42309919 61.58398438 21.16040039 C62.00499972 18.91078497 62.41721567 16.65968438 62.828125 14.40820312 C64.84178278 3.47465165 64.84178278 3.47465165 66 0 C70.62 0 75.24 0 80 0 C77.46182157 13.25843515 74.58415141 26.42917213 71.58129883 39.58886719 C69.6816497 47.92291893 67.84537381 56.2656997 66.15429688 64.64477539 C65.10170424 69.79659153 65.10170424 69.79659153 64 72 C59.71 72 55.42 72 51 72 C46.86463463 57.11268468 43.46518419 42.05426773 40 27 C39.80889648 27.79470703 39.61779297 28.58941406 39.42089844 29.40820312 C36.00181979 43.61939161 32.57879155 57.82798545 29 72 C24.71 72 20.42 72 16 72 C13.22147912 61.04824208 10.56599746 50.07185215 8.01782227 39.06420898 C7.43859056 36.56720131 6.85310813 34.07170906 6.26757812 31.57617188 C3.82978951 21.10097912 1.75134407 10.61148691 0 0 Z " fill="#194C51" transform="translate(530,475)"/>
<path d="M0 0 C3.55839139 2.04278024 5.2981608 3.28294223 6.83984375 7.0546875 C7.51445709 10.27722065 7.70675997 12.87898311 5.90583801 15.73548889 C5.37979477 16.30238937 4.85375153 16.86928986 4.31176758 17.45336914 C3.67042877 18.14657257 3.02908997 18.839776 2.36831665 19.5539856 C-2.8053521 24.89738775 -8.03671496 30.1792772 -13.30078125 35.43359375 C-14.58650559 36.71999272 -15.87208153 38.00654001 -17.15751648 39.29322815 C-19.83621965 41.9733976 -22.51670329 44.6517698 -25.19848633 47.32885742 C-28.63967187 50.76431158 -32.07630173 54.20428269 -35.5116396 57.64558315 C-38.15802365 60.29557229 -40.80677421 62.94318564 -43.45625877 65.59007454 C-44.72529734 66.85844548 -45.99359198 68.12756119 -47.26113319 69.39742851 C-49.02495695 71.16378161 -50.7919363 72.92691508 -52.55981445 74.68920898 C-53.08396942 75.21538818 -53.60812439 75.74156738 -54.14816284 76.28369141 C-56.95836929 79.07741138 -58.6888063 80.75024882 -62.625 81.5 C-71.777165 80.1441237 -80.4944908 67.69160387 -86.88378906 61.30151367 C-88.88588191 59.3016301 -90.89587424 57.30991231 -92.90625 55.31835938 C-94.18538407 54.04215584 -95.46404706 52.76547992 -96.7421875 51.48828125 C-97.34110809 50.89654617 -97.94002869 50.3048111 -98.55709839 49.69514465 C-99.38904221 48.85858589 -99.38904221 48.85858589 -100.23779297 48.00512695 C-100.72440399 47.51994095 -101.21101501 47.03475494 -101.71237183 46.53486633 C-104.42129069 43.30580655 -105 41.34043094 -105 37.0625 C-104.44006701 33.57919595 -103.86356231 32.84407121 -101.375 30 C-97.40424436 27.64695962 -95.53806072 27.27066881 -91 28 C-86.71926078 30.53770744 -83.3808694 33.42381472 -79.9609375 37.01953125 C-79.05085938 37.95861328 -78.14078125 38.89769531 -77.203125 39.86523438 C-75.77820093 41.34623642 -74.35760509 42.83086558 -72.94433594 44.32299805 C-71.56530371 45.77429915 -70.16959733 47.20969938 -68.7734375 48.64453125 C-67.95278809 49.50409424 -67.13213867 50.36365723 -66.28662109 51.24926758 C-64.23770166 53.20917953 -64.23770166 53.20917953 -62.17608643 52.90812683 C-59.06817088 51.61112803 -57.26169937 49.61209993 -54.89599609 47.22070312 C-54.40119247 46.72473129 -53.90638885 46.22875946 -53.39659119 45.71775818 C-51.76513028 44.07911795 -50.14444393 42.43022723 -48.5234375 40.78125 C-47.39124217 39.64091793 -46.25830713 38.50131984 -45.12466431 37.36242676 C-42.14335455 34.36400145 -39.17072748 31.35712017 -36.20025635 28.34796143 C-31.44061362 23.52911164 -26.66821617 18.72290063 -21.89528275 13.91722107 C-20.22735793 12.23530814 -18.5632894 10.54965236 -16.89974976 8.86340332 C-15.88165372 7.83528636 -14.86347968 6.80724665 -13.84521484 5.77929688 C-12.51095963 4.42813782 -12.51095963 4.42813782 -11.14974976 3.04968262 C-7.51541133 -0.41548363 -4.98021409 -0.49802141 0 0 Z " fill="#F8F5EF" transform="translate(299,472)"/>
<path d="M0 0 C33.80566802 0 33.80566802 0 40.0234375 5.9296875 C45.40417009 13.67421014 47.2336394 20.5047149 46 30 C44.08821915 34.70709389 40.91305762 38.76160748 37 42 C36.34 42 35.68 42 35 42 C40.53367298 55.01271202 40.53367298 55.01271202 47.1875 67.46875 C48 69 48 69 48 71 C43.05 71 38.1 71 33 71 C30.9951721 67.04404494 28.99594939 63.08543111 27 59.125 C26.42765625 57.99707031 25.8553125 56.86914062 25.265625 55.70703125 C24.72421875 54.63066406 24.1828125 53.55429687 23.625 52.4453125 C22.87089844 50.95281982 22.87089844 50.95281982 22.1015625 49.43017578 C21 47 21 47 21 45 C18.36 45 15.72 45 13 45 C13 53.58 13 62.16 13 71 C8.71 71 4.42 71 0 71 C0 47.57 0 24.14 0 0 Z " fill="#174B51" transform="translate(671,475)"/>
<path d="M0 0 C6.30097601 3.90399455 10.39899493 9.90125774 12.61328125 16.953125 C14.48691248 26.8701226 12.29830581 35.00542263 6.8125 43.3125 C0.87597529 48.98517917 -6.51088889 52.54348023 -14.6875 53.375 C-23.54564022 53.07071274 -30.82892991 49.19687324 -37.12109375 43.15234375 C-42.39323502 37.112947 -44.41306253 30.28584207 -44.27734375 22.30859375 C-43.34991766 14.5887512 -40.10652582 6.95751779 -34 2 C-22.41055515 -4.94281876 -12.32741993 -6.07849739 0 0 Z " fill="#194E54" transform="translate(264,373)"/>
<path d="M0 0 C4.95 0 9.9 0 15 0 C20.61362571 17.21771774 25.9966228 34.47185415 31.06494141 51.85888672 C32.40449837 56.35881879 33.82644385 60.83241785 35.25463867 65.30493164 C36 68 36 68 36 71 C31.38 71 26.76 71 22 71 C18 59.375 18 59.375 18 56 C11.07 56 4.14 56 -3 56 C-3.45375 57.918125 -3.9075 59.83625 -4.375 61.8125 C-5.24447923 65.48802585 -5.88955618 67.83433427 -8 71 C-11.0390625 71.29296875 -11.0390625 71.29296875 -14.625 71.1875 C-15.81351563 71.16042969 -17.00203125 71.13335938 -18.2265625 71.10546875 C-19.14179687 71.07066406 -20.05703125 71.03585937 -21 71 C-19.59633997 62.85904918 -17.3352301 55.07386738 -14.90234375 47.1875 C-14.50366298 45.88390229 -14.10535946 44.58018916 -13.70741272 43.27636719 C-12.87909282 40.56598201 -12.0476471 37.85658448 -11.21362305 35.14794922 C-10.14423525 31.67471951 -9.08071707 28.19972764 -8.01923275 24.72407532 C-7.19979782 22.04194351 -6.3783954 19.36041784 -5.55627632 16.67910767 C-4.97243577 14.77476331 -4.38940316 12.87017131 -3.80638123 10.96557617 C-3.4525386 9.81677979 -3.09869598 8.6679834 -2.73413086 7.484375 C-2.42261581 6.47084961 -2.11110077 5.45732422 -1.79014587 4.41308594 C-1 2 -1 2 0 0 Z " fill="#184C51" transform="translate(627,475)"/>
<path d="M0 0 C5.86138979 3.57432299 9.53545381 8.18595805 12.4375 14.3125 C12.4375 16.2925 12.4375 18.2725 12.4375 20.3125 C7.8175 20.3125 3.1975 20.3125 -1.5625 20.3125 C-1.995625 19.19875 -2.42875 18.085 -2.875 16.9375 C-4.26161119 13.13737666 -4.26161119 13.13737666 -7.5625 11.3125 C-11.98563594 10.73913053 -13.8813046 10.82998659 -17.5625 13.4375 C-19.84213165 16.14800722 -19.84213165 16.14800722 -19.625 19.375 C-18.38894932 22.79231658 -17.3424387 23.98615388 -14.5625 26.3125 C-11.98471568 27.50932843 -9.45164995 28.59085798 -6.8125 29.625 C0.90329056 32.84607088 7.94855556 36.1670156 11.4375 44.25 C13.12551779 49.97602113 13.31004841 54.91665748 10.875 60.4375 C7.5269423 66.3753445 3.10898146 69.98719225 -3.3125 72.25 C-10.95054281 74.20013859 -18.84762774 73.57854209 -25.77734375 69.6796875 C-30.33457634 66.1894656 -34.09816077 60.87698909 -35.5625 55.3125 C-35.5625 53.3325 -35.5625 51.3525 -35.5625 49.3125 C-30.9425 49.3125 -26.3225 49.3125 -21.5625 49.3125 C-21.13932292 51.62369792 -20.71614583 53.93489583 -20.29296875 56.24609375 C-20.05191406 56.92800781 -19.81085938 57.60992188 -19.5625 58.3125 C-15.22320955 59.75893015 -11.09691987 59.83199164 -6.5625 59.3125 C-3.78685155 57.95487846 -3.78685155 57.95487846 -2.5625 55.3125 C-1.89583333 51.8125 -1.89583333 51.8125 -2.5625 48.3125 C-5.67002027 44.27115419 -9.70642588 42.80381076 -14.3125 41 C-21.95241644 37.82609894 -27.48857655 34.34702452 -32.5625 27.6875 C-34.51057661 21.11274144 -34.85175743 14.08936215 -31.9375 7.8125 C-23.45798885 -1.11330121 -12.05525545 -5.68253453 0 0 Z " fill="#184B51" transform="translate(414.5625,474.6875)"/>
<path d="M0 0 C13.2 0 26.4 0 40 0 C40 3.63 40 7.26 40 11 C39 12 39 12 36.49975586 12.11352539 C35.41573486 12.10828857 34.33171387 12.10305176 33.21484375 12.09765625 C32.04501953 12.09443359 30.87519531 12.09121094 29.66992188 12.08789062 C28.43822266 12.07951172 27.20652344 12.07113281 25.9375 12.0625 C24.08415039 12.05573242 24.08415039 12.05573242 22.19335938 12.04882812 C19.12888587 12.03699618 16.06443707 12.01906008 13 12 C13 17.61 13 23.22 13 29 C15.36478516 28.98259766 15.36478516 28.98259766 17.77734375 28.96484375 C19.83072799 28.95546757 21.8841135 28.94636718 23.9375 28.9375 C24.97841797 28.92912109 26.01933594 28.92074219 27.09179688 28.91210938 C28.08115234 28.90888672 29.07050781 28.90566406 30.08984375 28.90234375 C31.46450806 28.89448853 31.46450806 28.89448853 32.86694336 28.88647461 C35 29 35 29 36 30 C36 33.63 36 37.26 36 41 C28.41 41 20.82 41 13 41 C13 46.94 13 52.88 13 59 C14.86527344 58.98839844 16.73054688 58.97679687 18.65234375 58.96484375 C21.08072817 58.95546775 23.50911367 58.94636735 25.9375 58.9375 C27.78504883 58.92493164 27.78504883 58.92493164 29.66992188 58.91210938 C30.83974609 58.90888672 32.00957031 58.90566406 33.21484375 58.90234375 C34.84087524 58.89448853 34.84087524 58.89448853 36.49975586 58.88647461 C39 59 39 59 40 60 C40 63.63 40 67.26 40 71 C26.8 71 13.6 71 0 71 C0 47.57 0 24.14 0 0 Z " fill="#1C5157" transform="translate(485,475)"/>
<path d="M0 0 C4.62 0 9.24 0 14 0 C16.94643351 5.71954741 19.73087724 11.48320786 22.3125 17.375 C22.82425781 18.53773438 23.33601562 19.70046875 23.86328125 20.8984375 C25 24 25 24 25 28 C25.66 28 26.32 28 27 28 C27.12310547 27.28360352 27.24621094 26.56720703 27.37304688 25.82910156 C28.0088888 22.95988964 28.91491918 20.45038622 30.03125 17.734375 C30.42957031 16.76242187 30.82789063 15.79046875 31.23828125 14.7890625 C31.86283203 13.28472656 31.86283203 13.28472656 32.5 11.75 C33.12455078 10.22246094 33.12455078 10.22246094 33.76171875 8.6640625 C36.86277636 1.13722364 36.86277636 1.13722364 38 0 C40.35313555 -0.07271741 42.70833668 -0.08370868 45.0625 -0.0625 C46.35285156 -0.05347656 47.64320313 -0.04445313 48.97265625 -0.03515625 C49.97167969 -0.02355469 50.97070312 -0.01195312 52 0 C49.84608412 7.07818822 46.95044476 13.43273895 43.5625 20 C42.13224959 22.7948753 40.70809448 25.59144362 39.31005859 28.40258789 C38.50615699 29.99645841 37.67169644 31.5758865 36.78759766 33.12670898 C32.96565496 40.34964914 33.32816467 48.09970166 33.25 56.0625 C33.22178965 57.51500874 33.19185529 58.96748508 33.16015625 60.41992188 C33.08370098 63.94692398 33.04263702 67.47178641 33 71 C28.71 71 24.42 71 20 71 C20.18755859 68.34324219 20.18755859 68.34324219 20.37890625 65.6328125 C21.13352361 44.73889855 15.27038584 30.11269061 4.79272461 12.21055603 C2.46792026 8.17831714 1.10946639 4.4789834 0 0 Z " fill="#174A50" transform="translate(821,475)"/>
<path d="M0 0 C15.51 0 31.02 0 47 0 C47 3.63 47 7.26 47 11 C41.39 11 35.78 11 30 11 C30 30.8 30 50.6 30 71 C25.71 71 21.42 71 17 71 C17 51.53 17 32.06 17 12 C11.72 12 6.44 12 1 12 C0.67 11.67 0.34 11.34 0 11 C0 7.37 0 3.74 0 0 Z " fill="#16494F" transform="translate(430,475)"/>
<path d="M0 0 C4.62 0 9.24 0 14 0 C14 19.47 14 38.94 14 59 C21.92 59 29.84 59 38 59 C40.83823106 61.83823106 39 66.98613514 39 71 C26.13 71 13.26 71 0 71 C0 47.57 0 24.14 0 0 Z " fill="#164B50" transform="translate(789,475)"/>
<path d="M0 0 C13 0 13 0 16.625 1.9375 C23.20071766 10.41671487 22.90196378 20.69366245 22 31 C20.9918586 36.88082484 19.37431623 41.75823881 15 46 C11 48 11 48 0 48 C0 32.16 0 16.32 0 0 Z " fill="#F8F5F0" transform="translate(742,487)"/>
<path d="M0 0 C12.226291 -0.49399156 12.226291 -0.49399156 15.86328125 1.828125 C19.38331958 5.40607986 19.33183544 9.0006081 19.29296875 13.7734375 C18.85946619 17.06805697 17.37450458 18.76517216 15 21 C10.73840618 23.13079691 4.59236298 22.04502317 0 22 C0 14.74 0 7.48 0 0 Z " fill="#F9F6F1" transform="translate(684,487)"/>
<path d="M0 0 C12.87 0 25.74 0 39 0 C39 0.33 39 0.66 39 1 C26.46 1 13.92 1 1 1 C1 23.77 1 46.54 1 70 C13.21 70 25.42 70 38 70 C38 67.03 38 64.06 38 61 C37.2479126 61.00523682 36.4958252 61.01047363 35.72094727 61.01586914 C32.33480658 61.03657227 28.94867916 61.04963877 25.5625 61.0625 C24.37849609 61.07087891 23.19449219 61.07925781 21.97460938 61.08789062 C20.84990234 61.09111328 19.72519531 61.09433594 18.56640625 61.09765625 C17.00321655 61.10551147 17.00321655 61.10551147 15.40844727 61.11352539 C13 61 13 61 12 60 C11.91330568 58.5112814 11.89296506 57.018555 11.90234375 55.52734375 C11.90484131 54.71773193 11.90733887 53.90812012 11.90991211 53.07397461 C11.91901611 52.03893799 11.92812012 51.00390137 11.9375 49.9375 C11.958125 46.658125 11.97875 43.37875 12 40 C19.59 39.67 27.18 39.34 35 39 C35 39.66 35 40.32 35 41 C27.74 41 20.48 41 13 41 C13 46.94 13 52.88 13 59 C14.86527344 58.98839844 16.73054688 58.97679687 18.65234375 58.96484375 C21.08072817 58.95546775 23.50911367 58.94636735 25.9375 58.9375 C27.78504883 58.92493164 27.78504883 58.92493164 29.66992188 58.91210938 C30.83974609 58.90888672 32.00957031 58.90566406 33.21484375 58.90234375 C34.84087524 58.89448853 34.84087524 58.89448853 36.49975586 58.88647461 C39 59 39 59 40 60 C40 63.63 40 67.26 40 71 C26.8 71 13.6 71 0 71 C0 47.57 0 24.14 0 0 Z " fill="#06282E" transform="translate(485,475)"/>
<path d="M0 0 C0.33 0 0.66 0 1 0 C1 4.29 1 8.58 1 13 C-7.58 13 -16.16 13 -25 13 C-25 17.95 -25 22.9 -25 28 C-22.74349609 27.98259766 -22.74349609 27.98259766 -20.44140625 27.96484375 C-18.48177207 27.95546751 -16.52213655 27.94636713 -14.5625 27.9375 C-13.07266602 27.92493164 -13.07266602 27.92493164 -11.55273438 27.91210938 C-10.60849609 27.90888672 -9.66425781 27.90566406 -8.69140625 27.90234375 C-7.37958374 27.89448853 -7.37958374 27.89448853 -6.04125977 27.88647461 C-4 28 -4 28 -3 29 C-2.92741054 31.18639453 -2.91626217 33.37500389 -2.9375 35.5625 C-2.94652344 36.76003906 -2.95554687 37.95757813 -2.96484375 39.19140625 C-2.97644531 40.11824219 -2.98804688 41.04507813 -3 42 C-5.40059817 43.20029908 -6.89360649 43.11459743 -9.5703125 43.09765625 C-10.46621094 43.09443359 -11.36210938 43.09121094 -12.28515625 43.08789062 C-13.69087891 43.07532227 -13.69087891 43.07532227 -15.125 43.0625 C-16.06988281 43.05798828 -17.01476562 43.05347656 -17.98828125 43.04882812 C-20.3255477 43.03702375 -22.66278169 43.01908799 -25 43 C-25 47.95 -25 52.9 -25 58 C-16.75 58 -8.5 58 0 58 C0 58.33 0 58.66 0 59 C-8.91 59 -17.82 59 -27 59 C-27 53.06 -27 47.12 -27 41 C-19.41 41 -11.82 41 -4 41 C-4.33 37.37 -4.66 33.74 -5 30 C-12.26 29.67 -19.52 29.34 -27 29 C-27 23.39 -27 17.78 -27 12 C-18.42 11.67 -9.84 11.34 -1 11 C-0.67 7.37 -0.34 3.74 0 0 Z " fill="#FCFCFB" transform="translate(525,475)"/>
<path d="M0 0 C1.87333849 2.81000774 2.61679646 4.69068296 3.5078125 7.88671875 C3.77207031 8.82451172 4.03632812 9.76230469 4.30859375 10.72851562 C4.57800781 11.70498047 4.84742188 12.68144531 5.125 13.6875 C5.40214844 14.67556641 5.67929687 15.66363281 5.96484375 16.68164062 C6.64798968 19.1197649 7.32462031 21.55971301 8 24 C3.05 24 -1.9 24 -7 24 C-6.02338881 20.37429362 -5.04383515 16.74942777 -4.0625 13.125 C-3.78470703 12.09246094 -3.50691406 11.05992187 -3.22070312 9.99609375 C-2.95322266 9.00996094 -2.68574219 8.02382813 -2.41015625 7.0078125 C-2.16402588 6.09660645 -1.91789551 5.18540039 -1.66430664 4.24658203 C-1 2 -1 2 0 0 Z " fill="#F4F3EF" transform="translate(634,494)"/>
<path d="M0 0 C0.33 0 0.66 0 1 0 C1 19.47 1 38.94 1 59 C8.92 59 16.84 59 25 59 C26 60 26 60 26.09765625 62.50390625 C26.08605469 63.51324219 26.07445312 64.52257812 26.0625 65.5625 C26.05347656 66.57441406 26.04445313 67.58632813 26.03515625 68.62890625 C26.02355469 69.41136719 26.01195312 70.19382812 26 71 C25.34 70.67 24.68 70.34 24 70 C24 67.03 24 64.06 24 61 C16.08 61 8.16 61 0 61 C0 40.87 0 20.74 0 0 Z " fill="#3D6366" transform="translate(802,475)"/>
<path d="M0 0 C0.66 0 1.32 0 2 0 C2 9.9 2 19.8 2 30 C6.29 30 10.58 30 15 30 C15 23.07 15 16.14 15 9 C15.33 9 15.66 9 16 9 C16.22587773 12.26987035 16.42766605 15.54079281 16.625 18.8125 C16.68945312 19.74126953 16.75390625 20.67003906 16.8203125 21.62695312 C16.89765625 22.9659668 16.89765625 22.9659668 16.9765625 24.33203125 C17.02893066 25.15421143 17.08129883 25.9763916 17.13525391 26.82348633 C17 29 17 29 15 32 C11.77734375 32.328125 11.77734375 32.328125 7.9375 32.25 C6.66777344 32.23453125 5.39804687 32.2190625 4.08984375 32.203125 C1 32 1 32 0 31 C-0.08790975 28.70848583 -0.10694038 26.41427476 -0.09765625 24.12109375 C-0.0962413 23.4344313 -0.09482635 22.74776886 -0.09336853 22.04029846 C-0.08775479 19.83932199 -0.07520007 17.63844591 -0.0625 15.4375 C-0.05748676 13.94856917 -0.05292355 12.45963676 -0.04882812 10.97070312 C-0.03778093 7.31376925 -0.02050713 3.65689442 0 0 Z " fill="#DAE0DF" transform="translate(839,516)"/>
<path d="M0 0 C0.96808594 -0.00257813 1.93617188 -0.00515625 2.93359375 -0.0078125 C4.45533203 0.00378906 4.45533203 0.00378906 6.0078125 0.015625 C7.01457031 0.00789063 8.02132812 0.00015625 9.05859375 -0.0078125 C10.51458984 -0.00394531 10.51458984 -0.00394531 12 0 C12.88800293 0.00225586 13.77600586 0.00451172 14.69091797 0.00683594 C17.26830378 0.2799842 18.91159412 0.96480097 21.1328125 2.265625 C17.7792149 2.46438008 14.42493569 2.64757717 11.0703125 2.828125 C10.12736328 2.88419922 9.18441406 2.94027344 8.21289062 2.99804688 C3.00874056 3.27004078 -1.74071823 3.22550482 -6.8671875 2.265625 C-4.34894926 -0.25261324 -3.48146703 0.00886675 0 0 Z " fill="#E7E9E7" transform="translate(245.8671875,444.734375)"/>
<path d="M0 0 C0.99 0.495 0.99 0.495 2 1 C2 3.97 2 6.94 2 10 C6.95 10 11.9 10 17 10 C17 10.66 17 11.32 17 12 C14.35409986 12.02684679 11.70846904 12.04676357 9.0625 12.0625 C7.93038086 12.07506836 7.93038086 12.07506836 6.77539062 12.08789062 C4.85005687 12.09652441 2.92464419 12.05224333 1 12 C0 11 0 11 -0.09765625 8.49609375 C-0.08605469 7.48675781 -0.07445312 6.47742188 -0.0625 5.4375 C-0.05347656 4.42558594 -0.04445313 3.41367187 -0.03515625 2.37109375 C-0.02355469 1.58863281 -0.01195312 0.80617188 0 0 Z " fill="#2D5257" transform="translate(430,475)"/>
<path d="M0 0 C0.78375 0.04125 1.5675 0.0825 2.375 0.125 C2.375 0.455 2.375 0.785 2.375 1.125 C5.345 1.62 5.345 1.62 8.375 2.125 C8.375 2.455 8.375 2.785 8.375 3.125 C4.415 3.125 0.455 3.125 -3.625 3.125 C-3.955 4.445 -4.285 5.765 -4.625 7.125 C-4.75 4.75 -4.75 4.75 -4.625 2.125 C-2.625 0.125 -2.625 0.125 0 0 Z " fill="#EBEEEB" transform="translate(567.625,471.875)"/>
<path d="M0 0 C1.8830622 3.26397448 2.67342446 6.24438133 3 10 C2.34 10.66 1.68 11.32 1 12 C1 10.35 1 8.7 1 7 C0.01 7 -0.98 7 -2 7 C-1.34 4.69 -0.68 2.38 0 0 Z " fill="#E1E6E5" transform="translate(570,501)"/>
<path d="M0 0 C1.2380014 3.57644848 0.74926071 6.33694766 0 10 C-0.66 10 -1.32 10 -2 10 C-2.33 7.36 -2.66 4.72 -3 2 C-2.01 1.34 -1.02 0.68 0 0 Z " fill="#EDF0EE" transform="translate(588,513)"/>
<path d="M0 0 C2.03125 3.7578125 2.03125 3.7578125 1.75 5.9375 C0.88539626 8.31516027 -0.02691456 10.66459494 -1 13 C-2.07310858 9.72814447 -1.89263102 7.57052408 -1.0625 4.25 C-0.86785156 3.45078125 -0.67320312 2.6515625 -0.47265625 1.828125 C-0.31667969 1.22484375 -0.16070313 0.6215625 0 0 Z " fill="#E5EAE7" transform="translate(604,499)"/>
<path d="M0 0 C1.31611677 0.95336021 2.62778961 1.91285774 3.9375 2.875 C4.66839844 3.40867187 5.39929688 3.94234375 6.15234375 4.4921875 C8 6 8 6 9 8 C5.40608886 6.66511872 2.24509304 5.03977277 -1 3 C-0.67 2.01 -0.34 1.02 0 0 Z " fill="#0C353C" transform="translate(225,546)"/>
<path d="M0 0 C0.99 0.33 1.98 0.66 3 1 C2.67 3.64 2.34 6.28 2 9 C1.01 9 0.02 9 -1 9 C-0.67 6.03 -0.34 3.06 0 0 Z " fill="#ECEDEA" transform="translate(340,525)"/>
<path d="M0 0 C0.33 0.66 0.66 1.32 1 2 C0.00390625 3.9453125 0.00390625 3.9453125 -1.4375 6.125 C-1.91058594 6.84945312 -2.38367188 7.57390625 -2.87109375 8.3203125 C-3.24363281 8.87460937 -3.61617187 9.42890625 -4 10 C-4.66 9.34 -5.32 8.68 -6 8 C-5.38125 7.236875 -4.7625 6.47375 -4.125 5.6875 C-1.94402948 3.00374191 -1.94402948 3.00374191 0 0 Z " fill="#EDF1EF" transform="translate(716,506)"/>
<path d="M0 0 C0 3 0 3 -2.3125 5.6875 C-5 8 -5 8 -8 8 C-5.36 5.36 -2.72 2.72 0 0 Z " fill="#FDFDFB" transform="translate(289,474)"/>
<path d="M0 0 C0.33 0.99 0.66 1.98 1 3 C-2.85756507 5.15305957 -5.55129785 6.39253254 -10 6 C-6.74147635 3.8276509 -3.40755272 1.92880342 0 0 Z " fill="#E2E8E6" transform="translate(266,419)"/>
</svg>
